/* XPM */
static xpm_row_t const s_xpm[] = {
/* columns rows colors chars-per-pixel */
"50 50 2 1 ",
"  c #000000",
". c #111111",
/* pixels */
"                                                  ",
"                                                  ",
"                    ..........                    ",
"                 ................                 ",
"               .....          .....               ",
"             ....                ....             ",
"           ....                    ....           ",
"          ...                        ...          ",
"         ...                          ...         ",
"        ...                            ...        ",
"       ...                              ...       ",
"      ...                                ...      ",
"      ..                                  ..      ",
"     ..                                    ..     ",
"     ..                                    ..     ",
"    ..                                      ..    ",
"    ..               ........               ..    ",
"   ..               ..........               ..   ",
"   ..              ...      ...              ..   ",
"   ..              ..        ..              ..   ",
"  ..               ..         .              ...  ",
"  ..               ..                         ..  ",
"  ..               ...                        ..  ",
"  ..                .....                     ..  ",
"  ..                 .......                  ..  ",
"  ..                   .......                ..  ",
"  ..                       ....               ..  ",
"  ..                         ...              ..  ",
"  ..                         ...              ..  ",
"  ..               .         ...             ...  ",
"   ..             ...        ...             ..   ",
"   ..              ...      ...              ..   ",
"   ..               ..........               ..   ",
"    ..               ........               ..    ",
"    ..                                      ..    ",
"     ..                                    ..     ",
"     ..                                    ..     ",
"      ..                                  ..      ",
"      ...                                ...      ",
"       ...                              ...       ",
"        ...                            ...        ",
"         ...                          ...         ",
"          ...                        ...          ",
"           ....                    ....           ",
"             ....                ....             ",
"               .....          .....               ",
"                 ................                 ",
"                    ..........                    ",
"                                                  ",
"                                                  "
};
