/* XPM */
static xpm_row_t const two_xpm[] = {
/* columns rows colors chars-per-pixel */
"50 50 2 1 ",
"  c #FFFFFF",
". c #000000",
/* pixels */
"..................................................",
"..................................................",
"..................................................",
"..................................................",
"..................................................",
"..................................................",
"......................      ......................",
"..................              ..................",
"................                  ................",
"..............         ....         ..............",
".............      ............      .............",
"............     ................     ............",
"...........     ..................     ...........",
"..........    ......................    ..........",
".........    ........................    .........",
".........    ........................    .........",
"........    ..........................    ........",
"........   ...........      ...........   ........",
".......    ..........        ..........    .......",
".......   ..........          ..........   .......",
".......   .........    ....    .........   .......",
".......   .........   ......   .........   .......",
"......    .........   ......   .........    ......",
"......   ...................   ..........   ......",
"......   ..................    ..........   ......",
"......   ................     ...........   ......",
"......   ...............     ............   ......",
"......    ............      ............    ......",
".......   ..........      ..............   .......",
".......   .........      ...............   .......",
".......   .........            .........   .......",
".......    ........            ........    .......",
"........   ........            ........   ........",
"........    ..........................    ........",
".........    ........................    .........",
".........    ........................   ..........",
"..........    ......................    ..........",
"...........     ..................     ...........",
"............     ................     ............",
".............      ............      .............",
"..............         ....        ...............",
"................                  ................",
"..................              ..................",
"......................      ......................",
"..................................................",
"..................................................",
"..................................................",
"..................................................",
"..................................................",
".................................................."
};
