/* XPM */
static xpm_row_t const aim_xpm[] = {
/* columns rows colors chars-per-pixel */
"41 41 2 1 ",
"  c None",
". c #ffffff",
/* pixels */
"                    .                    ",
"                    .                    ",
"                    .                    ",
"                    .                    ",
"                    .                    ",
"                    .                    ",
"                    .                    ",
"                    .                    ",
"                    .                    ",
"                ..  .  ..                ",
"              ..    .    ..              ",
"             .      .      .             ",
"            .       .       .            ",
"           .        .        .           ",
"          .         .         .          ",
"          .                   .          ",
"         .                     .         ",
"         .                     .         ",
"                                         ",
"                                         ",
"...............           ...............",
"                                         ",
"                                         ",
"         .                     .         ",
"         .                     .         ",
"          .                   .          ",
"          .         .         .          ",
"           .        .        .           ",
"            .       .       .            ",
"             .      .      .             ",
"              ..    .    ..              ",
"                ..  .  ..                ",
"                    .                    ",
"                    .                    ",
"                    .                    ",
"                    .                    ",
"                    .                    ",
"                    .                    ",
"                    .                    ",
"                    .                    ",
"                    .                    "
};
