/* XPM */
static xpm_row_t const bullet_xpm[] = {
/* columns rows colors chars-per-pixel */
"40 40 193 2 ",
"   c #000000",
".  c #0A0A0A",
"X  c #1C0400",
"o  c #3B1D00",
"O  c #2D2D2D",
"+  c #262626",
"@  c #363226",
"#  c #333333",
"$  c #3E3E3E",
"%  c #452400",
"&  c #483200",
"*  c #4C3900",
"=  c #463700",
"-  c #543D00",
";  c #433A12",
":  c #403F3B",
">  c #544405",
",  c #594600",
"<  c #5D4A00",
"1  c #534409",
"2  c #574911",
"3  c #634C00",
"4  c #6D5300",
"5  c #715C09",
"6  c #7B640D",
"7  c #564D2B",
"8  c #5C532B",
"9  c #5E5430",
"0  c #61572E",
"q  c #696039",
"w  c #444444",
"e  c #4B4D4C",
"r  c #525252",
"t  c #5A5A5A",
"y  c #7B714D",
"u  c #736B44",
"i  c #646464",
"p  c #6D6D6E",
"a  c #72716E",
"s  c #7A776A",
"d  c #747474",
"f  c #797975",
"g  c #7C7C7C",
"h  c #856C0C",
"j  c #916F00",
"k  c #9C7B01",
"l  c #987D0A",
"z  c #957B12",
"x  c #927B1B",
"c  c #85763F",
"v  c #817D74",
"b  c #9F8003",
"n  c #A68502",
"m  c #BF9A05",
"M  c #BF9C0E",
"N  c #BC970A",
"B  c #BD9B14",
"V  c #B4961C",
"C  c #BE9C1A",
"Z  c #B59717",
"A  c #BEA01E",
"S  c #9A8639",
"D  c #978227",
"F  c #AD9428",
"G  c #B59924",
"H  c #BB9C24",
"J  c #B0952A",
"K  c #B79A2A",
"L  c #AD963C",
"P  c #AA9334",
"I  c #B29A31",
"U  c #BA9F34",
"Y  c #B49D3D",
"T  c #BBA135",
"R  c #C09B05",
"E  c #C29D0D",
"W  c #C19E12",
"Q  c #C09F19",
"!  c #CDA504",
"~  c #C6A10B",
"^  c #CAA50F",
"/  c #D1AA0F",
"(  c #C5A110",
")  c #C2A01A",
"_  c #CCA718",
"`  c #D4AD12",
"'  c #C4A426",
"]  c #DEBA23",
"[  c #DEBB2C",
"{  c #DBB723",
"}  c #C6AB39",
"|  c #DDBB33",
" . c #D6B738",
".. c #E3BE21",
"X. c #E1BD2B",
"o. c #F1C40F",
"O. c #EEC314",
"+. c #EDC41B",
"@. c #F1C513",
"#. c #F1C71D",
"$. c #E5C22C",
"%. c #EAC424",
"&. c #F3CC2C",
"*. c #F0C721",
"=. c #F7D02D",
"-. c #E8C637",
";. c #F1CB36",
":. c #F4CF38",
">. c #8F8049",
",. c #9D8C45",
"<. c #A89648",
"1. c #B29F4B",
"2. c #B29D44",
"3. c #B5A04F",
"4. c #B8A558",
"5. c #848376",
"6. c #89867A",
"7. c #91896E",
"8. c #ADA16D",
"9. c #DDBD42",
"0. c #CDB75D",
"q. c #CAB867",
"w. c #EACA43",
"e. c #E8C742",
"r. c #F4D44A",
"t. c #F4D547",
"y. c #E6CA54",
"u. c #EACF5A",
"i. c #F6D959",
"p. c #ECD36F",
"a. c #F1DA72",
"s. c #EFD66F",
"d. c #FEE166",
"f. c #FEE26A",
"g. c #FCE271",
"h. c #FFEB7C",
"j. c #7F7F81",
"k. c #838383",
"l. c #8B8B8C",
"z. c #888687",
"x. c #959595",
"c. c #9B9B9C",
"v. c #999685",
"b. c #A49F8C",
"n. c #A6A18E",
"m. c #B6AD87",
"M. c #AFAB98",
"N. c #A1A1A2",
"B. c #ABABAB",
"V. c #AFB1B0",
"C. c #B4B4B4",
"Z. c #BBBBBB",
"A. c #B7B9B8",
"S. c #D2C695",
"D. c #E0CE87",
"F. c #E9D68B",
"G. c #F3DF89",
"H. c #E5D591",
"J. c #E9D795",
"K. c #E7D894",
"L. c #E3D59D",
"P. c #EBD992",
"I. c #FEEB8E",
"U. c #F5E087",
"Y. c #F9E592",
"T. c #FEEA92",
"R. c #FEED9B",
"E. c #F5E295",
"W. c #FFF69E",
"Q. c #D2CCAC",
"!. c #C8C7BB",
"~. c #E3D7A4",
"^. c #E3DCBE",
"/. c #FFEFA1",
"(. c #FFF5A3",
"). c #EAE1BA",
"_. c #E9E0B7",
"`. c #C4C5C4",
"'. c #CCCCCC",
"]. c #CBCBC3",
"[. c #CED0CF",
"{. c #DCD9CE",
"}. c #D6D6D7",
"|. c #DADADA",
" X c #E9E1C3",
".X c #E7E2CF",
"XX c #E9E2C7",
"oX c #F2E9C8",
"OX c #FFF7C8",
"+X c #FFF6D5",
"@X c #E6E6E6",
"#X c #F2F2F3",
"$X c #FDFDFD",
/* pixels */
"                                                                                ",
"                      Z.C.V.A.V.B.`.                                            ",
"                      l.p f d d p N.                                            ",
"                  `.k.j.f f k.k.k.l.z.                                          ",
"                '.B.d c.N.x.g i i p g C.'.                                      ",
"                g d d @X$X|.p + O r l.d l.                                      ",
"            A.c.k.x.A.@X#X}.p + # $ e p l.c.`.                                  ",
"            N.p g c.'.#X#X'.d # $ O O p k.p A.                                  ",
"            B.d g f d Z.!.g j.d # # # d z.f Z.                                  ",
"          C.x.g c.B.A.'.Z.g g g t w # r i g N.Z.                                ",
"        '.d g k.`.@X$X|.A.g g g k.i O O $ k.d g                                 ",
"        [.g g k.`.@X$X|.A.g g g k.i O O w j.g k.                                ",
"        . g j.k.C.[.#X}.A.g j.g a r # $ r j.g k.                                ",
"        '.a v 6.f n.{.{.!.v 5.f @ @ @ s 6.6.f g                                 ",
"          !.7.7 9 q y y u 8 9 8 ; ; ; 7 9 7 v.].                                ",
"          +Xc * < , 1 1 > , < < < 3 < , , * 8.+X                                ",
"        ~.<.I H  .u.Y.Y.a. .| X.X.[ | ) Z G I 3. X                              ",
"        K.I C ~ %.r.I.R.f.-.*.@.@.@.*.! M ~ M T ).                              ",
"        K.I C ~ ] t.I.T.f.$.+.@.@.O.+.! R E M U ).                              ",
"        J.I B ~ ..t.I.T.f.$.@.o.o.@.O.! R E M T ).                              ",
"        H.I B ~ +.t.I.Y.d.$.+.o.o.O.+.! R ~ M U ).                              ",
"        H.I C ~ ] t.I.T.d.$.+.o.o.O.+.! m E M T ).                              ",
"        K.I C ~ %.r.I.I.d.$.+.@.o.O.+.! m E M T ).                              ",
"        H.I C ~ ] t.I.T.f.X.%.O.O.O.#.! m E B T ).                              ",
"        K.I B E -.i.T.T.f.w.:.&.=.&.%.` ( E E T ).                              ",
"        K.I C W l } R.R.p.b b n k N ;.k j Q B U ).                              ",
"        K.I A Z X 5 (.(.q.X X X X 4 i.% o ' B U ).                              ",
"        K.I C C F 0.R.R.F.L L L F } w.n k H B U ).                              ",
"        H.I B B -.i.T.Y.a.e.;.&.&.*.+./ W W B T _.                              ",
"        L.L H ' -.i.W.(.h.e.;.&.&.&.:._ Q ' G 2. X                              ",
"        ^.S.<.6 x D ,.,.S x z z z z z h h 6 4.S..X                              ",
"        .XOXS & - * * * - - - - - - - - 1 & 4.OX                                ",
"        ~.3.K V  .y.G.G.s. .[ { ] { | B Z Z K 4. X                              ",
"        L.I H Q { -.s.s.u.| [ ] ..] { ^ E B C Y ).                              ",
"        ~.<.U ' N N K I J J F G V C ) B B ' K 1. X                              ",
"        ^.L.S 4 9.V 3 q.P.D.D.D.P.1.3 } } 3 3.L..X                              ",
"          : 7.2 0.P 2 Q.          m.> 4.4.> m..                                 ",
"              ^.= c                 oX8 0 oX                                    ",
"                6.M.                  n.b.                                      ",
"                  .                                                             "
};
