/* XPM */
static xpm_row_t const disk_hit_xpm[] = {
/* columns rows colors chars-per-pixel */
"90 90 207 2 ",
"   c #000000",
".  c #0E4A6D",
"X  c #0E4867",
"o  c #114B6E",
"O  c #0C4C76",
"+  c #114D73",
"@  c #104D79",
"#  c #13537A",
"$  c #0E517D",
"%  c #14F320",
"&  c #14F12C",
"*  c #15EF35",
"=  c #15EE3B",
"-  c #15F032",
";  c #16F038",
":  c #18BA77",
">  c #14BB6C",
",  c #15D95B",
"<  c #15E545",
"1  c #16EC43",
"2  c #17E84C",
"3  c #17E74B",
"4  c #17E653",
"5  c #19E654",
"6  c #17E852",
"7  c #19E55C",
"8  c #1AE957",
"9  c #19C96B",
"0  c #1BDA67",
"q  c #1BC479",
"w  c #1DDB72",
"e  c #1DD777",
"r  c #1AE565",
"t  c #0C4F82",
"y  c #0C5686",
"u  c #195786",
"i  c #115789",
"p  c #135C8C",
"a  c #195C8D",
"s  c #165885",
"d  c #145E93",
"f  c #1A5E91",
"g  c #137D88",
"h  c #166194",
"j  c #1A6395",
"k  c #15649B",
"l  c #1B659B",
"z  c #15689E",
"x  c #1C699E",
"c  c #096196",
"v  c #276697",
"b  c #21669B",
"n  c #216A9D",
"m  c #296A9B",
"M  c #386C98",
"N  c #33739D",
"B  c #2B759C",
"V  c #1767A0",
"C  c #1A67A1",
"Z  c #166BA2",
"A  c #1C6CA4",
"S  c #1D6EAA",
"D  c #1C71A5",
"F  c #1F71AC",
"G  c #1571AB",
"H  c #1A6AB2",
"J  c #1E73B2",
"K  c #1E7AB4",
"L  c #1E7AB8",
"P  c #226DA3",
"I  c #226EAA",
"U  c #2271A5",
"Y  c #2B73A5",
"T  c #2373AD",
"R  c #2A75AC",
"E  c #2679AE",
"W  c #2B7AAD",
"Q  c #2179A6",
"!  c #327BAC",
"~  c #3476A5",
"^  c #2475B3",
"/  c #2977B2",
"(  c #2679B4",
")  c #2A7CB4",
"_  c #2476B9",
"`  c #267ABB",
"'  c #297DBC",
"]  c #357DB9",
"[  c #317DB3",
"{  c #49739A",
"}  c #457BA7",
"|  c #1E79C2",
" . c #267DC3",
".. c #297EC3",
"X. c #267EC9",
"o. c #297FC9",
"O. c #307FC3",
"+. c #188B93",
"@. c #218798",
"#. c #259C89",
"$. c #1DBA86",
"%. c #1EAC8E",
"&. c #22BE88",
"*. c #22A29D",
"=. c #22B895",
"-. c #1E8BA2",
";. c #3B81AE",
":. c #2692A9",
">. c #2D81B6",
",. c #2681BE",
"<. c #2D81BC",
"1. c #2483B6",
"2. c #3282B5",
"3. c #3184BC",
"4. c #3589BD",
"5. c #3D85B9",
"6. c #2B98B4",
"7. c #228DA9",
"8. c #28ACB1",
"9. c #4683AE",
"0. c #5887A8",
"q. c #4989B8",
"w. c #588CB7",
"e. c #5591BD",
"r. c #778FA8",
"t. c #7B93AD",
"y. c #678FB3",
"u. c #789AB9",
"i. c #6794B6",
"p. c #1EC387",
"a. c #22C58A",
"s. c #22C887",
"d. c #26C492",
"f. c #23C89A",
"g. c #22D18E",
"h. c #24C2A2",
"j. c #2681C4",
"k. c #2C82C4",
"l. c #2F89C3",
"z. c #2681CB",
"x. c #2B84CC",
"c. c #2D88CE",
"v. c #3186C2",
"b. c #3289C4",
"n. c #3186CB",
"m. c #3889C9",
"M. c #2C99C1",
"N. c #2D9FCD",
"B. c #2786D1",
"V. c #2C86D1",
"C. c #2E89D4",
"Z. c #2E8AD8",
"A. c #3087D1",
"S. c #318BD3",
"D. c #308ED9",
"F. c #3B8CD2",
"G. c #3092CE",
"H. c #478CC7",
"J. c #4890CC",
"K. c #5A96C6",
"L. c #4C92D3",
"P. c #689AC8",
"I. c #679CD3",
"U. c #78A2C6",
"Y. c #78A4D3",
"T. c #849AB2",
"R. c #88A3BA",
"E. c #96A8B8",
"W. c #84ABCC",
"Q. c #83A6C3",
"!. c #8EB0CE",
"~. c #9AB5CB",
"^. c #8BAED4",
"/. c #82A9D3",
"(. c #99B6D3",
"). c #93ACC5",
"_. c #A6B6C6",
"`. c #ACBCCA",
"'. c #A2BDD9",
"]. c #A7BDD5",
"[. c #B2BCC6",
"{. c #B9C3CC",
"}. c #ABC1D6",
"|. c #B3C6DA",
" X c #B7C9D9",
".X c #B4C5D4",
"XX c #BCD0DF",
"oX c #BCCEE3",
"OX c #BCD1E5",
"+X c #CBD3DA",
"@X c #D9DBDD",
"#X c #C2CDD8",
"$X c #C9D6E3",
"%X c #D4DCE4",
"&X c #D5DDE6",
"*X c #D6E0E8",
"=X c #DCE4EB",
"-X c #DDE2E5",
";X c #DDE6F0",
":X c #E3E6EA",
">X c #EDEDED",
",X c #E6E7E7",
"<X c #EBEEF1",
"1X c #E5EBF2",
"2X c #F3F3F3",
"3X c #F9FAFA",
"4X c #EEF0F2",
/* pixels */
"                                                                                Q.u.w.q.q.9.0.i.U.U.~.XX+X+X2X<X&X2X3X                                                              ",
"                                                            4X              W Y Y E W E E D l T E E W 2.2.;.U.(..X*X,X,X>X                                                          ",
"                                                      &X-X=X}.u.;.T D T F D U D D T F D D S z V F T Y F T T E ( >.q.U. X&X@X2X                                                      ",
"                                                    *X{.u.9.G D D T D S F T T T F T E W ( ( T T ( F E T T J D F D K E ,.e.W.XX-X>X                                                  ",
"                                                =X`.u.W Z D U D F F F T ( T E E E E E E E E ( W E ( E E ( E E ^ ^ F T T E K 2.U.OX=X                                                ",
"                                              .Xu.! D A S D D Y T E E E E E E E E ( ( ( ) ) ( ( E ( ( E ( W W E ( ( ( ^ K T E E q.U.|.=X                                            ",
"                                          .Xu.;.A A D D T T E E E E E E E ( ( ) ( ` ) >.>.>.) W >.( >.( ) ) ( ( ) W W ( ( ^ ( T K E w.Q.XX                                          ",
"                                        R.9.U A D D T T E T E E E ( ( ` ) ) ) >.>.>.>.) >.>.>.>.>.>.>.>.3.3.<.,.` ) ) ( W E W ( ^ T K ) e.~.&X                                      ",
"                                      0.W A A I D T E W E T ^ ) ` ) >.>.>.( ( ( >.E >.( ) ) ) ( W ) ) ) W >.>.>.3.<.>.) ) E W ) W ^ ^ ^ T ;.U.+X>X                                  ",
"                                      n A A D T E E E T T ( ( / >.) ( ( ) ) ( >.( >.>.>.>.>.' >.>.>.>.<.>.>.) ) >.>.2.>.,.<.) ( W ! W T T Y W w. X2X                                ",
"                                    I A T T T E E E T ) :.=.a.=.:.( ( ( ) ( >.<.,.>.,.,.>.k.3.<.k.<.<.<.<.>.,.>.>.( >.>.2.2.<.) ' ) W Y R R T Y 9.(.;X                              ",
"                                  A A D T T E E T ^ 7.s.= & % 1 p.) >.>.>.j.<.>.>.>.>.>.>.>.' >.>.<.3.<.4.k.4.<.<.>.>.( W W 2.2.3.>.) W Y W / T E 5.~.:X                            ",
"                                A A T T E E T T _ ( &.= % % % % 1 ' <.<.>.>.( ) >.` 2.,.' >.' >.<.<.) ) <.>.>.<.3.3.k.<.>.) W W ~ ! ) >.W ! W ) E T >.W.=X                          ",
"                              D A D T W W E T K E >.0 % % % % % 1 2.) ( ( ) ,.6.a.0 5 1 - & & & & & ; 4 s.6.<.) >.3.3.v.v.<.>.W ! N N [ <.) W N E ( E >.W.*X                        ",
"                            D S D T E E F ( E >.>.( 4 % % % % % 2 $.0 2 = - & % % % % % % % % % % % % % % - 8 a.6.' >.>.3.v.v.3.) ) ~ N ! >.) W W W ^ ) ' W.1X                      ",
"                          A A S T E T T K ( >.( E _ 4 % % % % % = * % % % % % % % % % % % % % % % % % % % % % - a.v.k.>.>.>.3.3.3.) ) W N ~ ' / W E ( ^ ) <.!.=X                    ",
"                        A A S T E E F K ( >.E ( ( ( 4 % % % % % % % % % % % % % % % % % % % % % % % % % % % % % & 0 d.6.b.,.>.>.4.o.2.) W ~ ;.<.) ) ! R _ ( 2.}.                    ",
"                        A S T E T T E E W ( ( ( ( >.3 % % % % % % % % % % % % % % % % % % % % % % % % % % % % % % % - s.d.8 6 s.:.3.v.k.>.) W 2.,.) W W ( _ ) q.}.                  ",
"                      S A T T T E ( E E ( E ( ) >.( 4 % % % % % % % % % % % % % % % % % % % % % % % % % % % % % % % % % % % % & s.3.) 4.k.3.<.) 2.,.>.) ) ( _ ( e.                  ",
"                    A A D T E T F E W ( E ( ) ) ( ( 3 % % % % % % % % % % % % % % % % % % % % % % % % % % % % % % % % % % % % % 1 e w d.6.x.,.<.[ 2.k.' ) ) ( ` <.u.                ",
"                  A V D T E T T E ( ( ^ ( ( W ) ( ( 3 % % % % % % % % % % % % % % % % % % % % % % % % % % % % % % % % % % % % % % % % * s.v.k.<.' 2.3.' ' ) ) _ ` 4.(.              ",
"                  A A U W T T T E E E T ( ( ) ( >.>.= % % % % % % % % % % % % % % % % % % % % % % % % % % % % % % % % % % % % % % % % % 3 <.v.k.<.) >.v.<.' [ ' ` ( e.|.            ",
"                A V D T E T T E ( E ^ E ( ) _ ) >.( * % % % % % % % % % % % % % % % % % % % % % % % % % % % % % % % % % % % % % % % % % = k.>.b.<.<.>.3.3.<.' ) ` ` ) W.            ",
"              D z Z Y T T ^ E ) ( ( ( ( ( ) ( ( ( ( & % % % % % % % % % % % % % % % % % % % % % % % % % % % % % % % % % % % % % % % % % 6 k.<.<.v.<.' >.3.k.' ' ` ` ` q.|.          ",
"            A A z A E T D T ) ( ^ J ( ( ( ( :.&.0 5 % % % % % % % % % % % % % % % % % % % % % % % % % % % % % % % % % % % % % % % % % % 4 l.k.<.3.v.k.' >.3.,.` ) ` ` ` W.          ",
"          Y D z x Y E T U E ) ( T E ( ) ) *.3 % % % % % % % % % % % % % % % % % % % % % % % % % % % % % % % % % % % % % % % % % % % % % 5 b.l.k.' 4.v.' ' 3.k.' ' ) _ ` m. X        ",
"        y.Z A z U T T T T ) ( ^ E ( ) _ *.; % % % % % % % % % % % % % % % % % % % % % % % % % % % % % % % % % % % % % % % % % % % % % % 8 <.l.b.k.>.v...<.<.v...' ' ` _ ' W.1X      ",
"      `.U A z k U T T D ( ( ( ^ E ( ( :.2 % % % % % % % % % % % % % % % % % % % % % % % % % % % % % % % % % % % % % % % % % % % % % % % 5 <.k.n.k.k.v.v.<.k.v.k.' >.>.' ` 5.|.      ",
"      u.Z k z n E T F T ) ( ^ T ) ` _ $.% % % % % % % % % % % % % % % % % % % % % % % % % % % % % % % % % % % % % % % % % % % % % % % % 8 v.<.v.n.,.<.b.k.k.>.v.k.<.) ) ` j.!.=X    ",
"    %X~ x z h U ^ D U T ) ( T E ) ^ ) , % % % % % % % % % % % % % % % % % % % % % % % % % % % % % % % % % % % % % % % % % % % % % % % % 5 v.v.k.b.x.k.v.n.k.k.3.k.,.' ' ` K K.&X    ",
"    _.Z A z j T T F U ) ( ^ T ( ` ^ ( 1 % % % % % % % % % % % % % % % % % % % % % % % % % % % % % % % % % % % % % % % % % % % % % % % % 5 b.k.<.k.b.j.<.k.k.<.<.v.k.<.' ` ` (  X4X  ",
"    i.Z z z x E T D T ) ^ S T ` ^ T ( * % % % % % % % % % % % % % % % % % % % % % % % % % % % % % % % % % % % % % % % % % % % % % % % % 7 4.b.v.<.b.k.k.v.k.k.' v...,.,.` ` K ^.4X  ",
"    N A z j P T T P ) _ ^ F ( ` T T ` & % % % % % % % % % % % % % % % % % % % % % % % % % % % % % % % % % % % % % % % % % % % % % % % % 9 ' v.v.3.2.l.k.k.b.k.' 3.k...3.' ` ` H.$X  ",
"    x V k l T ^ A P _ _ F T ( ` T ) 1.% % % % % % % % % % % % % % % % % % % % % % % % % % % % % % % % % % % % % % % % % % % % % % % % % &.k.v.b.v.k.n.x.k.v.j.k.<.k.k.' ' ` ' <. X  ",
"  R.D z h n T T V T ( ^ F ( ( J T ` :.% % % % % % % % % % % % % % % % % % % % % % % % % % % % % % % % % % % % % % % % % % % % % % % % < @.] ' v.k.v.k.k.k.k.k.k.k.v.....' ` ` ..'.  ",
"  0.C z h I T T x W ^ ( S T ` T R ( &.% % % % % % % % % % % % % % % % % % % % % % % % % % % % % % % % % % % % % % % % % % % % % % * > g l ) k.v.n.v.k.b.k.v.v.k.v.k.x.......` ` P.1X",
"  N x l j U ^ D n T ^ ^ U / ^ U R ` e % % % % % % % % % % % % % % % % % % % % % % % % % % % % % % % % % % % % % % % % % % % % % % % , g h T ' v.k.v.v.k.k.v.k.x.' v.x.k.v.' _ ' q.=X",
"  Y Z k n U ^ V Y ) ^ S P ) ^ P ( ^ , % % % % % % % % % % % % % % % % % % % % % % % % % % % % % % % % % % % % % % % % % % % % % % % % : h T ] ' v.k.b.k.k.k.k.x.v...k.....'  ._ m.#X",
"  Y z d b U ^ C Y ) ^ I n / T P R ^ 0 % % % % % % % % % % % % % % % % % % % % % % % % % % % % % % % % % % % % % % % % % % % % % % % % , h x ,.v.3.k.k.k.x.k.k.z.k...o.....' ` ` v.}.",
"  I C d x T S l Y ^ ( I P ^ I P R I $.% % % % % % % % % % % % % % % % % % % % % % % % % % % % % % % % % % % % % % % % % % % % % % % % < z j ` 3.v.k.v.k.b.k.k.k.k.k.v.......`  .v.(.",
"t.P k d P T S l R ) ^ C Y ^ A Y ^ T @., % % % % % % % % % % % % % % % % % % % % % % % % % % % % % % % % % % % % % % % % % % % % % % % < k c ( j.3.k.k.k.v.k.k.j.k.k.k...O...) _ ] W.",
"y.P k d P ^ S j R _ T P R _ I R / I B e % % % % % % % % % % % % % % % % % % % % % % % % % % % % % % % % % % % % % % % % % % % % % % % < V d W <.3.v.k.l.x.x.k.k.k.k.k.k...O.` _ ' P.",
"0.x d j P T S l R ) I C R ^ I T _ T #.; % % % % % % % % % % % % % % % % % % % % % % % % % % % % % % % % % % % % % % % % % % % % % % % < V z E k.k.k.x.k.k.k.v.x.x.v.k...o.O. ._ ' K.",
"N x d d P ( A j / _ ^ x R _ C ) / I 9 % % % % % % % % % % % % % % % % % % % % % % % % % % % % % % % % % % % % % % % % % % % % % % % % , V V F <.3.v.k.b.k.x.k.k.o...v.x.O.O._ | ..J.",
"N C d d x T A j / / ^ l W _ l ( ) F 3 % % % % % % % % % % % % % % % % % % % % % % % % % % % % % % % % % % % % % % % % % % % % % % % % : z z / ' ..v.k.v.x.k.v.x.x.k.v.o...v... ...m.",
"N C d d n ( A j / ) I P ^ ^ P ) ( Q & % % % % % % % % % % % % % % % % % % % % % % % % % % % % % % % % % % % % % % % % % % % % % % % & +.A A ( 3.3.k.o.n.k.x.x.x.x.x.k.x.o.v._  .` H.",
"{ Z k d C ^ S j ) _ ^ x ( ^ C ) ' *.% % % % % % % % % % % % % % % % % % % % % % % % % % % % % % % % % % % % % % % % % % % % % % % % 0 A A D ) k.v.v.n.v.k.c.v.x.x.x.v.o.o..... .` H.",
"0.C d p b ^ S f R _ ^ C T ' x ( ` q % % % % % % % % % % % % % % % % % % % % % % % % % % % % % % % % % % % % % % % % % % % % % % % & $.G S D ` ..] k.k.x.v.x.x.x.x.v.k.n.x.v..... .K.",
"r.n z p b ^ S f / _ ^ C R _ I I ` , % % % % % % % % % % % % % % % % % % % % % % % % % % % % % % % % % % % % % % % % % % % % % % % q -.S F F ' 3.3.k.x.k.k.x.n.k.x.x.n.x.x... . ...P.",
"t.x k p f ^ H f Y ' ^ C P ' S I ' 4 % % % % % % % % % % % % % % % % % % % % % % % % % % % % % % % % % % % % % % % % % % % % % % 7 T J J F ^ k.k.v.X.x.v.x.x.x.x.x.x.v.o.x... .X.O.^.",
").n k d f ^ J d P ` / C C ' T C ` 4 % % % % % % % % % % % % % % % % % % % % % % % % % % % % % % % % % % % % % % % % % % % % % % w K J J J ` k.k.3.x.v.x.o.n.x.x.n.x.v.o.x... . .n.^.",
"{.n k d f I J l v _ _ P P ` ^ x ^ 4 % % % % % % % % % % % % % % % % % % % % % % % % % % % % % % % % % % % % % % % % % % % % % % $._ J J K ,.x.v.k.x.k.n.x.n.x.V.c.n.x.x.n... . .n._.",
"{.m k d p P J C j / _ I l 7.a.< * % % % % % % % % % % % % % % % % % % % % % % % % % % % % % % % % % % % % % % % % % % % % % % e :.L K L ` k.x.v.x.n.x.k.A.c.x.x.x.n.x.x.x... .z.n.$X",
"+XM z d i P J C f R ' ^ j q * % % % % % % % % % % % % % % % % % % % % % % % % % % % % % % % % % % % % % % % % % % % % % % % & ) L L L L ' x.n.k.x.n.x.x.c.c.x.c.n.x.x.x.x...X.z.F.=X",
"2Xr.z d i l ^ S f P ' _ x < % % % % % % % % % % % % % % % % % % % % % % % % % % % % % % % % % % % % % % % % % % % % % % % % 4 ,.,.L ` ' k.x.k.k.x.V.x.x.V.x.x.c.V.x.X.x.x...X.o.I.:X",
"  E.k k d f I ^ f v .._ S = % % % % % % % % % % % % % % % % % % % % % % % % % % % % % % % % % % % % % % % % % % % % % % % % s.k.,.,.` ,.k.k.k.x.x.n.k.c.c.o.V.V.c.x.V.x.o. .X.k./.,X",
"  [.d k d i I ^ S f / ..^ > - % % % % % % % % % % % % % % % % % % % % % % % % % % % % % % % % % % % % % % % % % % % % % % - :. .` ,.j.x.l.k.k.x.n.x.z.V.c.x.c.S.C.c.B.c.k.X.X.z.'.  ",
"    M k d i l ^ S d I .._ @.q 4 * % % % % % % % % % % % % % % % % % % % % % % % % % % % % % % % % % % % % % % % % % % % % 4 j.j.,.,.k.c.c.x.x.c.c.x.V.V.x.c.V.c.c.X.x.x.X.X.X.J.&X  ",
"    t.k d i p ^ ^ d f O._ ^ d ^ ' %.< % % 1 & % % % % % % % % % % % % % % % % % % % % % % % % % % % % % % % % % % % % % % 8 j.j.j.<.b.V.x.k.c.V.c.z.x.c.z.V.C.C.x.z.V.x. .X.z.Y.4X  ",
"    .Xc d p y I J C d _ ..^ j P 1.1.+.$.=.*.$.- % % % % % % % % % % % % % % % % % % % % % % % % % % % % % % % % % % % % % r j.j.k.k.S.x.k.x.c.V.z.S.V.c.x.S.V.c.x.V.x.x.X.X.B.(.    ",
"      { d d p f ^ J d x ....T d ^ ..^ z `  .1.9 % % % % % % % % % % % % % % % % % % % % % % % % % % % % % % % % % % % % % w k.c.k.n.V.x.x.n.A.x.x.S.V.x.V.C.S.x.x.V.x.X.X. .m.$X    ",
"      T.z f i t ^ ^ C f _ k.' l j .. .@.q 4 - % % % % % % % % % % % % % % % % % % % % % % % % % % % % % % % % % % % % % - f.l.j.n.C.V.k.V.V.V.x.V.V.x.x.C.C.c.x.V.C.x.X.z.B.Y.      ",
"      #Xv d d t f ' I d b ....J d I  .p.& % % % % % % % % % % % % % % % % % % % % % % % % % % % % % % % % % % % % % - 1 g.M.c.C.S.x.x.x.V.A.z.x.V.x.x.V.C.S.x.V.V.V. .z.x.c.oX      ",
"        r.c d t @ ^ _ C d ^ o. .S p ' 4 % % % % % % % % % % % % % % % % % % % % % % % % % % % % % % % % % % % % % r V.S.Z.l.C.C.x.o.x.S.V.x.V.V.V.x.x.Z.C.V.x.V.V.x.X.B.z.Y.        ",
"        {.m p O . f _ ^ d f  .o._ l f 4 % % % % % % % % % % % % % % % % % % % % % % % % % % % % % % % % % % % % % h.D.c.S.S.V.x. .x.A.A.x.x.V.C.x.x.V.Z.C.x.V.V.V... .o.n.          ",
"        -Xr.t t @ u I  .H u P o.o.^ f : * % % % % % % % % % % % % % % % % % % % % % % % % % % % % % % % % % % % w N.c.S.S.S.c. .x.V.Z.x.z.A.Z.c.z.V.S.S.V.o.V.A...H H | I.          ",
"          _.M k i t u _ _ f p / X.o.J +.q 7 * & % - * 4 9 9 3 & % % % % % % % % % % % % % % % % % % % % % % - f.M.V.C.S.x.k.j.c.V.x.x.o.V.C.x.o.V.Z.Z.A.x.V.C.x.o.o.| /             ",
"          %Xr.l d i @ v _ ^ d f ' x. .P f I o...P f _ x.x._ P Q *.g.w 7 r 7 8 1 % % % % % % % % % % % % ; w 8.x.S.S.V...j.k.V.V.Z.x.x.V.C.V.o.V.Z.D.A.V.V.C.V.o.o.o.Z.              ",
"          >X{.{ f f t t I _ H a f ..x...S f I ....I l I o.o.o.^ C I _ x.C.A.D.G.8.1 % % % % % % % % - 6.S.S.S.C.V... . .x.V.C.V.X.X.C.C.V.X.V.C.Z.S.o.o.V.Z.o.X.Z.A.L.              ",
"            >XR.v b p O u /  .C i v x.x. .^ d P o.x._ l b ..x.o. .^ P A ( x.A.V.D.8.7 % % % % % % - g.S.S.C.k.` `  .o.V.V.A.z...x.C.C.x.o.V.C.Z.D.o.o.Z.Z.V.X.X.o.F.                ",
"            >X-X} M d t + f _  .C p P o.x...^ d b ..x.o.J j I o.x.x. ._ I C P / j.x.M.f.w r 7 r e h.M.' _ ^ `  .x.V.V.V.x...o.V.Z.V.x.X.V.C.Z.S.o.X.C.V.n.o.X.X.Z.I.                ",
"              3X+X{ f a t + b  ._ C i b x.V.X._ l f ` x.x.` C f I x.x.x.z..._ _ ( F A T S T I I F ^ ^ _ ..x.x.V.V.V.n.'  .x.V.V.C. .X.V.Z.Z.S.x.o.V.Z.n.o. .X.V.L.                  ",
"              >X>X_.M j p $ O P .._ C u b o.V.V. .C u I o.x.x.' C l I o.o.o.x.x.o.Z.o.o.X.X.o.o.x.x.x.x.x.V.V.V..._ ' o.V.V.C.x. .o.Z.Z.D.Z.o.o.o.Z.A.o.X.X.V.H.'.                  ",
"                  2XR.v d i + . P ....C i f ..V.V.o.^ f f _ o.V.x...^ f P / ' o.o.o.o.o.C.C.C.o.x.c.V.V.o.o._ ^  .o.V.S.V.x.o. .V.V.Z.Z.o.o.o.Z.Z.Z.O...o.V.V.^.                    ",
"                    ,XT.l d i @ + P o. .I f f _ V.S.A.o.S f x ^ o.x.C.V. .J C S ^ _ _  .....o. ..._ _ ^ ^  .X.V.V.V.Z.x.o. .o.V.D.D.D.V.o.X.Z.Z.o.o. .X.o.C./.$X                    ",
"                        t.k h i + . b o.o.^ f u P ..V.V.V. .I l P I  .o.C.C.V.x.o. ._ _ J J J _ _  .X.V.Z.Z.V.C.x.o.o._ X.Z.Z.Z.D.V.o. .X.Z.Z.o.O. .X.o.x.I.%X                      ",
"                            l d i @ . j ..o...P p f ^ x.C.V.V.z.^ A C S ^ _ o.x.C.Z.Z.V.V.V.Z.C.V.Z.Z.V.x.z. ._ `  .o.V.V.Z.D.Z.o.o.X.X.Z.Z.o. . .X.o.Z.Y.$X                        ",
"                                d p @ . u / o.o._ x a b _ V.C.S.V.x...^ I S P A I H _ _  . . . ...` _ _ _ `  .X.V.V.Z.Z.Z.Z.o. .o.o.V.Z.Z.X. .X.X.o.o.I.$X                          ",
"                                  x a @ o + P o.V...^ l a l ^ x.V.Z.V.A.V.x.o. ._ ^ ^ ^ ^ ^ ^ _ _  ...X.x.C.C.Z.D.Z.Z.Z.o. . .X.C.Z.Z.n...|  .o.X.Z.Y.&X                            ",
"                                      d t . o u / V.V...^ x a f I ..A.Z.Z.Z.Z.D.V.Z.V.V.V.V.V.C.V.C.V.Z.Z.Z.Z.Z.Z.V..._ ..o.o.Z.Z.V.o._  . .X.o.L.^.%X                              ",
"                                          i O X + f ' V.V.o.' I l a j I ..x.V.S.Z.V.Z.D.Z.Z.Z.Z.Z.Z.Z.Z.V.V.x..._ J  .o.C.C.Z.C.z._ |  . .x.B.L.'.>X                                ",
"                                            d u o o + v ' V.V.V.x.` T l j f l S ^ ..o.o.V.o.o.n.o.o. ._ _ ^ J _ X.o.C.Z.Z.Z.o. .^ |  .X.V.F.I.$X                                    ",
"                                                f s o X + f _ x.V.S.S.V.X. .^ J S A C C A S S A I ^ _ _  .V.V.V.Z.Z.Z.A.o._ J _ | X.X.V.J.(.&X                                      ",
"                                                    a # o o o u P ` o.x.V.D.C.C.C.V.x.x.x.x.o.V.V.V.V.Z.Z.Z.Z.V.V.X._ ^ H J K ` X.X.J.Y.|.<X                                        ",
"                                                        b u # # . # u P / _ O.o.V.C.Z.V.Z.Z.D.V.C.o.A.o.o..._ _ H S J _ _ ^  .o...Y.'.%X2X                                          ",
"                                                            x l j f # # u u f b I I ^ _ _ _ ^ ^ ^ ^ I ^ S A I S ^ _ _  .....n.Y.}.&X,X                                              ",
"                                                              ^ _ ^ A A f j a j k l d j l C z C A A P C S ^ _  .o.o.X.X.H.Y.oX:X,X                                                  ",
"                                                                  ^ ` ` ^ _ H I I S S P A ^ ^ ^ ^ ^ _  .` o.X.X.o.m.U.'.$X:X<X                                                      ",
"                                                                      w.~ ] ..v...o.X.X...X.o.O.z.x.o.O.O.] P.!.].%X<X,X,X                                                          ",
"                                                                          [._.(.R.y.w.} ] ] q.H.P.Q.!.~.$X:X&X,X3X>X                                                                "
};
