/* XPM */
static xpm_row_t const splatter_xpm[] = {
/* columns rows colors chars-per-pixel */
"65 81 185 2 ",
"   c None",
".  c #030000",
"X  c #0B0000",
"o  c #130000",
"O  c #1C0000",
"+  c #240101",
"@  c #2B0101",
"#  c #2C0908",
"$  c #330202",
"%  c #3B0203",
"&  c #320B0B",
"*  c #3D0D0D",
"=  c #271514",
"-  c #2B1312",
";  c #321111",
":  c #3E1010",
">  c #3E1A1A",
",  c #430202",
"<  c #4A0303",
"1  c #440C0C",
"2  c #4C0D0D",
"3  c #530303",
"4  c #5B0202",
"5  c #540B0B",
"6  c #5C0D0D",
"7  c #431213",
"8  c #4C1313",
"9  c #441619",
"0  c #471919",
"q  c #4E1A1B",
"w  c #521515",
"e  c #5C1515",
"r  c #531719",
"t  c #551C1D",
"y  c #5D1B1B",
"u  c #650404",
"i  c #6B0404",
"p  c #620808",
"a  c #6B0D0D",
"s  c #730202",
"d  c #7B0404",
"f  c #740A0A",
"g  c #7E0D0D",
"h  c #661616",
"j  c #6C1515",
"k  c #631B1B",
"l  c #6A1C1C",
"z  c #741616",
"x  c #7D1717",
"c  c #721B1B",
"v  c #7B1C1C",
"b  c #5F1E21",
"n  c #472625",
"m  c #4D2223",
"M  c #492929",
"N  c #522020",
"B  c #5A2323",
"V  c #532A2A",
"C  c #5C2C2C",
"Z  c #553434",
"A  c #5A3333",
"S  c #553838",
"D  c #5C3B3B",
"F  c #652525",
"G  c #6B2222",
"H  c #662C2C",
"J  c #6A2A2A",
"K  c #742525",
"L  c #7C2424",
"P  c #732E2E",
"I  c #7C2B2B",
"U  c #623535",
"Y  c #6C3434",
"T  c #653B3B",
"R  c #6C3C3C",
"E  c #733232",
"W  c #7B3535",
"Q  c #753B3B",
"!  c #7D3D3D",
"~  c #594545",
"^  c #5B4B4B",
"/  c #624343",
"(  c #6B4343",
")  c #6A4B4B",
"_  c #624D4D",
"`  c #724444",
"'  c #7B4242",
"]  c #744B4B",
"[  c #7C4F4F",
"{  c #775454",
"}  c #7F5050",
"|  c #6D6161",
" . c #746767",
".. c #756C6C",
"X. c #7B6262",
"o. c #797070",
"O. c #840A0A",
"+. c #8C0E0E",
"@. c #880505",
"#. c #900B0B",
"$. c #9A0C0C",
"%. c #831313",
"&. c #8A1313",
"*. c #831C1C",
"=. c #8B1D1D",
"-. c #921515",
";. c #9E1616",
":. c #931D1D",
">. c #9B1E1E",
",. c #AC0D0D",
"<. c #AA1010",
"1. c #A11E1E",
"2. c #AE1E1E",
"3. c #B31414",
"4. c #832525",
"5. c #892323",
"6. c #842C2C",
"7. c #8A2A2A",
"8. c #952525",
"9. c #9B2323",
"0. c #932B2B",
"q. c #9F2828",
"w. c #8B3232",
"e. c #853C3C",
"r. c #8E3838",
"t. c #913535",
"y. c #993434",
"u. c #943E3E",
"i. c #993B3B",
"p. c #A32323",
"a. c #AB2525",
"s. c #A42B2B",
"d. c #AC2A2A",
"f. c #B42424",
"g. c #B32B2B",
"h. c #BC2E2E",
"j. c #A93535",
"k. c #A43A3A",
"l. c #AC3939",
"z. c #A23232",
"x. c #B53333",
"c. c #BD3333",
"v. c #B53B3B",
"b. c #BF3E3E",
"n. c #C42D2D",
"m. c #C43636",
"M. c #C43A3A",
"N. c #CC3E3E",
"B. c #874646",
"V. c #8D4545",
"C. c #834B4B",
"Z. c #8B4A4A",
"A. c #954242",
"S. c #904848",
"D. c #9D4C4C",
"F. c #875252",
"G. c #8D5151",
"H. c #875A5A",
"J. c #975757",
"K. c #A44343",
"L. c #B44141",
"P. c #BE4545",
"I. c #AC5959",
"U. c #A75353",
"Y. c #846868",
"T. c #A66767",
"R. c #AE6767",
"E. c #A06969",
"W. c #AA6B6B",
"Q. c #BD6767",
"!. c #A47676",
"~. c #A07D7D",
"^. c #B07474",
"/. c #C04444",
"(. c #C54C4C",
"). c #CB5656",
"_. c #D35D5D",
"`. c #C86E6E",
"'. c #D07E7E",
"]. c #858080",
"[. c #CF8686",
"{. c #E89E9E",
"}. c #E7A0A0",
"|. c #EBA9A9",
" X c #EFB3B3",
/* pixels */
"                                                                                                                                  ",
"                                                                                                                                  ",
"                                                                                                                                  ",
"                                                                                                                                  ",
"                                                                                                                                  ",
"                                                                                                                                  ",
"                                                                                                                                  ",
"                                                                                                                                  ",
"                                                                                                                                  ",
"                                                                                                                                  ",
"                                                                                                                                  ",
"                                                                                                                                  ",
"                                                                                          }. X                                    ",
"                                                                          f.m.            {.|.                                    ",
"                                                                          L.                                                      ",
"                                                                        /.                                                        ",
"                                                                      2.f.(.                                                      ",
"                                                          A.A.      v.3.a./.      _.                                              ",
"                                                    K 5.C.r.w.t.k.l.j.2.a.  ).            N.                                      ",
"                                          o.].  ) R v =.B.A.6.&.:.9.:.  d.  (.      n.n.m.M.M.m.                                  ",
"                                a.z.      | ..  ) Y K 4.Z.S.4.s @.@.O.:.s.            h.m.M.m.m.                                  ",
"                                s.s.    X.| | ^ A F E E B.e.v u s d g :.s.s.d.c.h.h.  g.c.m.h.c.                                  ",
"                                  t.  Y.Y. ...^ A J ' B.Z.e.I h 4 u z 8.8.9.;.p.p.1.a.g.d.d.g.g.M.                                ",
"                                      ` ) ( ^ S Y Q [ F.F.' E y < < h 4.5.6.%.=.&.&.:.>.-.p.x./.M.                                ",
"                            f.l.    Q ! ] ( ~ / R { ] J e t 8 < , $ % 3 4 4 i u i i x %.O.-.l.P.g.g.                              ",
"                              K.u.  E ` ] R A _ C T t 1 $ $ $ $ @ + @ @ , < < 3 3 4 i i O.@.:.d.a.                                ",
"                                    P Q ] ( B A 2 : # + + @ + + O O O + + % % % % , 4 u s O.-.1.a.g.v.                            ",
"                                      Q ` T w 2 $ O o o O + O O o o O + + @ + @ @ % % < i d &.>.                                  ",
"                                      A T C 5 < + o X X O O o o o o o o o o o o O @ , 4 i d +.>.s.p.  p.                          ",
"                                    S T D V % $ + o X X X o o X X X o o o X o + O $ < i d O.&.p.      p.                          ",
"                                  C D D V > $ @ o X . . X X X X X X X X o X O O + % 4 s O.-.9.a.      9.                          ",
"                          a.      C V M M 1 $ O X X . . . . . X X X X X o o O O @ % u f %.9.s.              '.                    ",
"                                  D Z n 7 1 & o X . . . . . . . X X X X X o + + % < 5 e *.p.d.                                    ",
"                                ~ D D C e 2 $ o . . . . . . . . X . X X o O @ % 3 6 h k L 8.8.                                    ",
"                                A / T J y , @ o X . . . . . . . . X . X o + $ < F K I G j x c *.                                  ",
"                            C.U Z ( Y F 1 % @ O X . . . . . . . . X X X O + % < F J I h a z a f                                   ",
"                          ~.  D ( R H e 5 % @ + X . . . . . . . X o o o O @ $ , 5 e j j c                                         ",
"                              ( ) ( V w 6 3 % @ o . . . . . . . X X X o O + @ * q l h e j                                         ",
"                                H N * 1 e 6 < $ o X . . . . . . . X X o o + @ @ 7 e h h j                   I.7.                  ",
"                                r 8 * 7 5 5 1 & + X . . . . . . X X X O O + + $ % F c j c x %.                5.                  ",
"                                  > - ; * 2 e 2 & o X . . . . X X o X + + @ + + * U E K c z                   %.                  ",
"                                    - = ; * 1 2 * + X X X . X X X o o + @ + O + 1 ` H.G.W 6                             @.        ",
"                                      - ; # & 1 1 $ o X X X X X o O O @ @ + o + 2 Y C.! k 3                                       ",
"                                      ; ; # # % 1 % O o X X X o O + O @ @ + o @ 2 R C.! h C                                       ",
"                                        & : # & $ $ O o o o o O + + + @ @ + o @ 2 ( C.W h F                                       ",
"                                          : & # @ $ O O O o O O + @ + + + + O & 2 E E K I I       d d                             ",
"                                          * # + & $ + + + + @ + @ @ + O O O + & 1 5 j 4.r.J.                                      ",
"                                              + @ @ O + @ @ @ $ $ @ + + + + @ % 7 w G w.t.                                        ",
"                                              @ + + o + $ $ $ 8 w , & + @ @ 7 r q h 6.i.y.y.                                      ",
"                                                @ + X + $ % % y b t 7 @ % % F F.B K i.K.y.                                        ",
"                                                  $ o O @ @ $ $ 9 m q 8 8 y Z.!.C.A.K.                                            ",
"                                                  , O + @ @ + @ 9 b k G G ! T.^.E.J.U.                                            ",
"                                                  < + $ % % % * B F G 6.5.A.W.R.Q.U.      x f                                     ",
"                                                  3 + , 5 3 5 5 r k G 7.:.7.D.U.`.                                                ",
"                                                  4 $ 5   , e   h *.t.i.9.y.t.  [.                                                ",
"                                                  +.a             7.u.D.k.L.                                                      ",
"                                                  +.f                                                                             ",
"                                                  #.s                                                                             ",
"                                                  $.                                                                              ",
"                                                  <.                                                                              ",
"                                                  ,.                                                                              ",
"                                                  a.                                                                              ",
"                                                                                                                                  ",
"                                                                                                                                  ",
"                                                                                                                                  ",
"                                                                                                                                  ",
"                                                                                                                                  ",
"                                                                                                                                  ",
"                                                                                                                                  ",
"                                                                                                                                  ",
"                                                                                                                                  ",
"                                                                                                                                  ",
"                                                                                                                                  ",
"                                                                                                                                  ",
"                                                                                                                                  ",
"                                                                                                                                  ",
"                                                                                                                                  ",
"                                                                                                                                  ",
"                                                                                                                                  ",
"                                                                                                                                  ",
"                                                                                                                                  "
};
